<svg xmlns="http://www.w3.org/2000/svg" viewBox="0 0 100 100">
  <defs>
    <linearGradient id="grad" x1="0%" y1="0%" x2="100%" y2="100%">
      <stop offset="0%" style="stop-color:#3b82f6;stop-opacity:1" />
      <stop offset="100%" style="stop-color:#2563eb;stop-opacity:1" />
    </linearGradient>
  </defs>
  
  <!-- Background circle -->
  <circle cx="50" cy="50" r="48" fill="url(#grad)"/>
  
  <!-- Letter G -->
  <path d="M 35 35 Q 30 35 30 40 L 30 60 Q 30 65 35 65 L 55 65 Q 60 65 60 60 L 60 50 L 50 50 L 50 55 L 55 55 L 55 60 L 35 60 L 35 40 L 60 40 Q 65 40 65 35 Q 65 30 60 30 L 35 30 Q 30 30 30 35" 
        fill="white" stroke="white" stroke-width="2"/>
  
  <!-- Chart bars (simplified GMAT analytics icon) -->
  <rect x="68" y="45" width="6" height="20" fill="white" opacity="0.9"/>
  <rect x="76" y="35" width="6" height="30" fill="white" opacity="0.9"/>
  <rect x="84" y="40" width="6" height="25" fill="white" opacity="0.9"/>
</svg>
